<?xml version="1.0" encoding="UTF-8"?>
<svg version="1.1" xmlns="http://www.w3.org/2000/svg" width="600" height="600">
<path d="M0 0 C1.36125 0.26490234 1.36125 0.26490234 2.75 0.53515625 C3.4925 0.70917969 4.235 0.88320312 5 1.0625 C6.1446875 1.32740234 6.1446875 1.32740234 7.3125 1.59765625 C7.869375 1.73042969 8.42625 1.86320313 9 2 C9 2.66 9 3.32 9 4 C10.258125 4.268125 11.51625 4.53625 12.8125 4.8125 C16.55680295 5.65184295 20.2839276 6.54305064 24 7.5 C24.928125 7.7371875 25.85625 7.974375 26.8125 8.21875 C29 9 29 9 30 11 C31.82346791 11.58959531 31.82346791 11.58959531 34.015625 11.94921875 C38.73228969 12.90653389 43.19938424 14.25887568 47.75 15.8125 C48.52279297 16.07385742 49.29558594 16.33521484 50.09179688 16.60449219 C69.08470162 23.08470162 69.08470162 23.08470162 72 26 C72.24050903 28.17666626 72.24050903 28.17666626 72.22705078 30.90869141 C72.22682419 32.44005234 72.22682419 32.44005234 72.22659302 34.00234985 C72.21627045 35.10759003 72.20594788 36.2128302 72.1953125 37.3515625 C72.1924826 38.4807309 72.18965271 39.60989929 72.18673706 40.77328491 C72.17551462 44.39062971 72.15040622 48.00772966 72.125 51.625 C72.11497287 54.0729131 72.10584656 56.52083007 72.09765625 58.96875 C72.07556857 64.97925064 72.04207074 70.98960783 72 77 C72.66 77.33 73.32 77.66 74 78 C73.34 78 72.68 78 72 78 C72.16008545 78.58217285 72.3201709 79.1643457 72.48510742 79.76416016 C77.07227744 99.68322277 70.50649889 124.9946423 60.69140625 142.3125 C57.82795756 146.86227528 54.50082039 150.92973009 51 155 C50.00033203 156.20076172 50.00033203 156.20076172 48.98046875 157.42578125 C36.81568584 171.57665116 21.62834019 182.33520631 5.5625 191.625 C4.80485352 192.07568848 4.04720703 192.52637695 3.26660156 192.99072266 C-0.01720541 194.83522231 -2.22153682 195.99398095 -6.03125 196.0234375 C-9.92109704 194.68246392 -13.45145395 192.96264989 -17.0625 191 C-17.80258301 190.60425781 -18.54266602 190.20851563 -19.30517578 189.80078125 C-25.32967758 186.51303936 -30.91961166 182.79025782 -36.4609375 178.75 C-38.94637811 176.86342968 -38.94637811 176.86342968 -42 176 C-43.68762851 174.3545622 -45.3540349 172.68711423 -47 171 C-47.99 170.34 -48.98 169.68 -50 169 C-50.92812654 167.98700053 -51.82169259 166.94175411 -52.6875 165.875 C-54.96877082 163.13634568 -57.36083151 160.64931699 -59.9375 158.1875 C-70.78914801 147.39774352 -78.50895991 132.73926643 -81.4453125 117.72265625 C-81.97810553 114.87839928 -81.97810553 114.87839928 -83.02026367 111.70043945 C-84.5509226 105.5713407 -84.26570373 99.3483616 -84.23046875 93.0703125 C-84.2292726 91.71239262 -84.2288247 90.3544719 -84.2290802 88.99655151 C-84.22752181 86.15389799 -84.21929208 83.31137152 -84.20581055 80.46875 C-84.18898227 76.88069837 -84.18507431 73.29278673 -84.18563652 69.70470047 C-84.18501921 55.1145936 -84.09976681 40.5564072 -83 26 C-82.29915283 25.73783691 -81.59830566 25.47567383 -80.8762207 25.20556641 C-77.68809622 24.01262483 -74.50029525 22.81882108 -71.3125 21.625 C-70.20970703 21.2125 -69.10691406 20.8 -67.97070312 20.375 C-66.90400391 19.97539062 -65.83730469 19.57578125 -64.73828125 19.1640625 C-63.75899658 18.79748535 -62.77971191 18.4309082 -61.77075195 18.05322266 C-59.92652346 17.35219158 -58.08923744 16.63261177 -56.25952148 15.89453125 C-54.1696118 15.06714831 -52.17706557 14.54023479 -50 14 C-47.74337759 13.22741252 -45.49402847 12.4334382 -43.25 11.625 C-42.07953125 11.20476562 -40.9090625 10.78453125 -39.703125 10.3515625 C-34.99584851 8.63350589 -30.30232278 6.88074483 -25.62207031 5.09033203 C-23.08747566 4.12635342 -20.54470894 3.18691556 -18 2.25 C-17.14921875 1.92128906 -16.2984375 1.59257812 -15.421875 1.25390625 C-9.70664339 -0.82356291 -5.96435493 -1.24468 0 0 Z M-11.703125 13.71484375 C-19.51264067 16.58094105 -27.41900062 19.14486687 -35.32421875 21.73242188 C-36.47019531 22.11076172 -37.61617187 22.48910156 -38.796875 22.87890625 C-39.82135742 23.2147876 -40.84583984 23.55066895 -41.90136719 23.89672852 C-44.68410713 24.88752601 -47.36097497 26.02404613 -50.06622314 27.20591736 C-53.78562377 28.73324533 -57.61697279 29.94067202 -61.4375 31.1875 C-62.26443359 31.46013672 -63.09136719 31.73277344 -63.94335938 32.01367188 C-65.96132879 32.67855197 -67.98053778 33.33966791 -70 34 C-70.09344759 43.22434721 -70.16413851 52.44852685 -70.20724869 61.67324734 C-70.22795886 65.95852538 -70.25596549 70.24347522 -70.30175781 74.52856445 C-70.34581716 78.67834166 -70.36926096 82.82780698 -70.37950897 86.97780037 C-70.38679433 88.54634563 -70.40101369 90.11487747 -70.42292023 91.68328667 C-70.71990512 113.86621257 -65.14033163 134.37819057 -49.44140625 150.65234375 C-48.23291016 151.81443359 -48.23291016 151.81443359 -47 153 C-46.29617187 153.72703125 -45.59234375 154.4540625 -44.8671875 155.203125 C-44.20976563 155.87859375 -43.55234375 156.5540625 -42.875 157.25 C-42.21242188 157.93578125 -41.54984375 158.6215625 -40.8671875 159.328125 C-39.00363358 161.21948202 -39.00363358 161.21948202 -36 162 C-34.94425781 163.09634766 -34.94425781 163.09634766 -33.8671875 164.21484375 C-30.28782549 167.69179894 -26.40124433 170.03115996 -22.125 172.5625 C-20.95904297 173.26536133 -20.95904297 173.26536133 -19.76953125 173.98242188 C-18.23963076 174.9016478 -16.70488141 175.81285912 -15.16503906 176.71533203 C-13.77629555 177.53936996 -12.40142678 178.38753204 -11.04589844 179.26513672 C-8.52073072 180.85720917 -6.59624718 181.98367761 -3.57421875 182.06640625 C0.30680897 180.45863604 3.69639113 178.25873242 7.1875 175.9375 C7.93837891 175.44378906 8.68925781 174.95007813 9.46289062 174.44140625 C20.04071041 168.22632654 20.04071041 168.22632654 27 159 C28.10601562 158.57460938 28.10601562 158.57460938 29.234375 158.140625 C39.80076594 153.78273495 48.54159211 138.14872068 53.33984375 128.23046875 C58.59030135 115.01516604 59.44596974 101.14571708 59.29296875 87.125 C59.28735253 85.57845477 59.28309206 84.0319041 59.28010559 82.48535156 C59.26881579 78.47408518 59.23949186 74.46316051 59.20599365 70.45202637 C59.17494415 66.33525206 59.16152685 62.2184209 59.14648438 58.1015625 C59.11460151 50.06755396 59.06360556 42.03381984 59 34 C56.02172432 32.89342006 53.04221615 31.79019466 50.0625 30.6875 C49.23169922 30.37876953 48.40089844 30.07003906 47.54492188 29.75195312 C42.06311714 27.72560507 36.55581495 25.81299305 31 24 C29.91368286 23.64381088 29.91368286 23.64381088 28.80541992 23.28042603 C26.55860179 22.54507945 24.31075645 21.81296791 22.0625 21.08203125 C21.25635254 20.81992355 20.45020508 20.55781586 19.61962891 20.2877655 C17.93577866 19.74054074 16.25185873 19.19353035 14.56787109 18.64672852 C12.84142301 18.08585448 11.11518931 17.52432012 9.38916016 16.9621582 C6.88489682 16.1465365 4.38002559 15.33280837 1.875 14.51953125 C1.09906494 14.26645706 0.32312988 14.01338287 -0.47631836 13.75263977 C-5.53400957 12.11399334 -6.82739796 11.89687381 -11.703125 13.71484375 Z " fill="#01A4C6" transform="translate(150,197)"/>
<path d="M0 0 C4.14581887 -0.02886751 8.29161216 -0.04675327 12.4375 -0.0625 C14.21350586 -0.07506836 14.21350586 -0.07506836 16.02539062 -0.08789062 C17.15009766 -0.09111328 18.27480469 -0.09433594 19.43359375 -0.09765625 C20.47572021 -0.10289307 21.51784668 -0.10812988 22.59155273 -0.11352539 C25 0 25 0 26 1 C26.16010481 3.73701178 26.25946828 6.4516759 26.31640625 9.19140625 C26.33718735 10.01124496 26.35796844 10.83108368 26.37937927 11.67576599 C26.44496494 14.30458901 26.50380126 16.93351504 26.5625 19.5625 C26.60567667 21.34050561 26.64929067 23.11850065 26.69335938 24.89648438 C26.80065543 29.26421634 26.90189704 33.63205227 27 38 C27.45375 37.505 27.9075 37.01 28.375 36.5 C30 35 30 35 32 35 C32 34.34 32 33.68 32 33 C33.35546875 31.66796875 33.35546875 31.66796875 35.1875 30.1875 C38.32965866 27.63406824 41.14298116 24.86931591 44 22 C46.4403404 19.66816615 48.90674198 17.36472058 51.375 15.0625 C52.00921875 14.46759766 52.6434375 13.87269531 53.296875 13.25976562 C54.57099595 12.0701527 55.85565258 10.89172293 57.15063477 9.72485352 C59.00691697 8.0496315 59.00691697 8.0496315 60.55053711 6.24194336 C64.25525216 2.33465836 67.14652507 1.58019045 72.51953125 1.30859375 C74.9508715 1.32047972 77.38223217 1.36432236 79.8125 1.4375 C81.05193359 1.43943359 82.29136719 1.44136719 83.56835938 1.44335938 C90.27480167 1.54225284 90.27480167 1.54225284 93 2 C93.99 3.485 93.99 3.485 95 5 C91.7741994 9.93950717 88.42019004 13.53513931 83.90625 17.31640625 C81.78353064 19.10521684 81.78353064 19.10521684 79.5 22 C77.46238255 24.44514094 75.59364304 26.28012676 73.1875 28.3125 C69.36352868 31.56648314 66.10327461 35.13428187 62.8203125 38.92578125 C60.65336718 41.39498289 58.32224497 43.67775503 56 46 C54.97186389 47.31175986 53.95915568 48.6369893 53 50 C53.99 50.495 53.99 50.495 55 51 C55.89030306 52.11798712 56.73804346 53.27010712 57.5625 54.4375 C62.13149494 60.66387545 67.30525839 66.46150958 72.875 71.8125 C75 74 75 74 76.2421875 76.1953125 C78.96323556 80.53689585 82.49184768 84.16649256 85.96875 87.91601562 C86.76539063 88.81030273 86.76539063 88.81030273 87.578125 89.72265625 C88.06700195 90.25640869 88.55587891 90.79016113 89.05957031 91.34008789 C90 93 90 93 89.84887695 95.00927734 C88.84959239 97.35272465 87.75892192 98.46304533 85.83984375 100.12890625 C85.21142578 100.68900391 84.58300781 101.24910156 83.93554688 101.82617188 C83.27619141 102.39916016 82.61683594 102.97214844 81.9375 103.5625 C80.62741646 104.70197985 79.32367202 105.84880182 78.02734375 107.00390625 C77.44718506 107.50736572 76.86702637 108.0108252 76.26928711 108.52954102 C74.67328661 110.05474344 74.67328661 110.05474344 75 113 C74.34 113 73.68 113 73 113 C73 112.34 73 111.68 73 111 C72.15501953 110.65775391 72.15501953 110.65775391 71.29296875 110.30859375 C62.07755692 105.04937235 54.4758037 92.77001199 48.0546875 84.4921875 C46.02631167 81.95086188 46.02631167 81.95086188 43.63671875 79.63671875 C40.50727319 76.50727319 37.66794806 73.19032916 34.8125 69.8125 C27.05362189 67.86342968 24 67 24 67 C22.31237149 25.3545622 20.6459651 23.68711423 19 22 C18.01 21.34 17.02 20.68 16 20 C15.07187346 18.98700053 14.17830741 17.94175411 13.3125 16.875 C10.35272951 13.31437385 7.1158808 10.1508809 3.734375 6.9921875 C1.80872221 4.78028902 0.93638664 2.7613851 0 0 Z" fill="#..."/>
<!-- NOTE: the full SVG content has been copied from src/public/kyxelsecurity.svg. -->
</svg>